Coordinates
version=1
nRows=11
nColumns=46
inDegrees=yes

Units are S.I. units (second, meters, Newtons, ...)
Angles are in degrees.

endheader
time	pelvis_tilt	pelvis_list	pelvis_rotation	pelvis_tx	pelvis_ty	pelvis_tz	bb_angle	bb_tx	bb_ty	bb_tz	hip_flexion_r	hip_adduction_r	hip_rotation_r	knee_angle_r	knee_angle_r_beta	ankle_angle_r	subtalar_angle_r	mtp_angle_r	crank_angle_r	hip_flexion_l	hip_adduction_l	hip_rotation_l	knee_angle_l	knee_angle_l_beta	ankle_angle_l	subtalar_angle_l	mtp_angle_l	crank_angle_l	lumbar_extension	lumbar_bending	lumbar_rotation	arm_flex_r	arm_add_r	arm_rot_r	elbow_flex_r	pro_sup_r	wrist_flex_r	wrist_dev_r	arm_flex_l	arm_add_l	arm_rot_l	elbow_flex_l	pro_sup_l	wrist_flex_l	wrist_dev_l
      0.00500000	    -14.32096885	      4.10824755	      0.91400556	      0.11087128	      1.07701451	     -0.26588029	      0.00000000	      0.50000000	      0.00000000	      0.25000000	     39.52593690	     -9.20194825	     -1.94897762	     45.24449754	      0.78966545	      8.95785539	     -5.26556412	      0.00000000	      0.00000000	     92.11661801	     -2.68411491	     -2.04475162	    109.75603511	      1.91560419	     18.79537661	     -9.55324185	      0.00000000	      0.00000000	    -51.77552630	     -0.79318718	     -3.70367377	     89.65987891	     -4.40574320	     40.92097758	     24.66614952	     25.00025835	      0.00000000	      0.00000000	     89.60837650	     -4.08585149	     42.01824614	     26.28654477	     25.16041565	      0.00000000	      0.00000000
      0.01000000	    -14.61775302	      4.16580256	      0.85142381	      0.11087664	      1.07646863	     -0.26580663	      0.00000000	      0.50000000	      0.00000000	      0.25000000	     39.96391034	     -9.19997918	     -1.80389002	     45.44253658	      0.79312188	      8.94189691	     -5.31727745	      0.00000000	      0.00000000	     92.43111866	     -2.75288147	     -2.09856569	    109.71599758	      1.91490540	     18.79355087	     -9.50064459	      0.00000000	      0.00000000	    -51.35988393	     -0.91862968	     -3.69735731	     89.66087454	     -4.17440823	     40.99517116	     23.88553556	     25.30590359	      0.00000000	      0.00000000	     89.60989751	     -3.85362846	     42.23159419	     25.46079768	     25.50386241	      0.00000000	      0.00000000
      0.01500000	    -14.40413722	      4.14882801	      0.87108679	      0.11083069	      1.07679329	     -0.26581069	      0.00000000	      0.50000000	      0.00000000	      0.25000000	     39.72821803	     -9.19174388	     -1.81323779	     45.47203955	      0.79363681	      8.94706772	     -5.40012139	      0.00000000	      0.00000000	     92.17773787	     -2.69985848	     -1.99251981	    109.72827694	      1.91511972	     18.91851945	     -9.30178420	      0.00000000	      0.00000000	    -51.71199181	     -0.85065075	     -3.68750197	     89.65699387	     -4.31262951	     40.11811394	     24.55972834	     26.11003128	      0.00000000	      0.00000000	     89.59792140	     -3.96471180	     41.37393879	     26.14003662	     26.31626458	      0.00000000	      0.00000000
      0.02000000	    -14.61610550	      4.01396266	      0.70780937	      0.11099681	      1.07612210	     -0.26590382	      0.00000000	      0.50000000	      0.00000000	      0.25000000	     40.05197455	     -9.01083105	     -1.80043978	     45.65885209	      0.79689730	      8.95823228	     -5.33127426	      0.00000000	      0.00000000	     92.50106775	     -2.86089648	     -1.83310225	    109.77817094	      1.91599053	     18.83931939	     -9.24549739	      0.00000000	      0.00000000	    -51.32056116	     -0.87821808	     -3.48753379	     89.66083592	     -4.49350598	     42.16804745	     24.06676216	     25.36960959	      0.00000000	      0.00000000	     89.61454309	     -4.04471314	     43.16748206	     25.64573348	     25.68005065	      0.00000000	      0.00000000
      0.02500000	    -14.52903035	      3.93775560	      0.52002675	      0.11127615	      1.07597044	     -0.26589112	      0.00000000	      0.50000000	      0.00000000	      0.25000000	     40.00884424	     -8.84808439	     -1.72241794	     45.76540966	      0.79875708	      9.00491161	     -5.33038517	      0.00000000	      0.00000000	     92.45672967	     -2.98426408	     -1.68364596	    109.82046069	      1.91672863	     18.86121647	     -9.14510097	      0.00000000	      0.00000000	    -51.40806985	     -0.95080345	     -3.27699437	     89.65625630	     -4.25217687	     40.47025251	     24.14636354	     25.20022885	      0.00000000	      0.00000000	     89.60526254	     -3.62026387	     41.79543369	     25.45208968	     25.56293699	      0.00000000	      0.00000000
      0.03000000	    -14.47302739	      3.81488906	      0.52683006	      0.11123271	      1.07578362	     -0.26615512	      0.00000000	      0.50000000	      0.00000000	      0.25000000	     39.97972383	     -8.77081934	     -1.78338826	     45.87622909	      0.80069125	      9.06306267	     -5.30062743	      0.00000000	      0.00000000	     92.51810400	     -3.05701446	     -1.68719992	    109.80306140	      1.91642495	     18.58727246	     -9.34984550	      0.00000000	      0.00000000	    -51.50534136	     -0.79483328	     -3.23221926	     89.65794278	     -3.73953540	     38.15413001	     23.52791321	     28.77947775	      0.00000000	      0.00000000	     89.59365095	     -3.39776911	     39.65402658	     25.05282367	     29.14702628	      0.00000000	      0.00000000
      0.03500000	    -14.65919896	      3.68622203	      0.33445202	      0.11131471	      1.07514964	     -0.26613069	      0.00000000	      0.50000000	      0.00000000	      0.25000000	     40.27045414	     -8.53380506	     -1.66317520	     46.02748416	      0.80333115	      9.00620154	     -5.35414152	      0.00000000	      0.00000000	     92.80103147	     -3.25735055	     -1.56869088	    109.87955476	      1.91776001	     18.54517740	     -9.54207161	      0.00000000	      0.00000000	    -51.14864330	     -0.89673937	     -2.87711246	     89.66100651	     -4.74583422	     42.17427882	     23.63281595	     27.99600043	      0.00000000	      0.00000000	     89.60385090	     -3.86520251	     43.92054040	     24.41404018	     28.42847536	      0.00000000	      0.00000000
      0.04000000	    -14.70061990	      3.60646563	      0.19765718	      0.11131378	      1.07484520	     -0.26611974	      0.00000000	      0.50000000	      0.00000000	      0.25000000	     40.38528937	     -8.37492380	     -1.56782658	     46.14875856	      0.80544778	      9.02521014	     -5.38927878	      0.00000000	      0.00000000	     92.90273697	     -3.40137040	     -1.50303400	    109.91394812	      1.91836029	     18.48152033	     -9.67652189	      0.00000000	      0.00000000	    -51.10247014	     -0.92463545	     -2.73908255	     89.65619585	     -4.28748388	     40.24063097	     23.45836397	     27.56481575	      0.00000000	      0.00000000	     89.59241756	     -3.39496109	     42.01849897	     24.23703150	     27.99763900	      0.00000000	      0.00000000
      0.04500000	    -14.63794128	      3.52870650	      0.04803140	      0.11158403	      1.07475200	     -0.26606735	      0.00000000	      0.50000000	      0.00000000	      0.25000000	     40.34423038	     -8.22168642	     -1.50961688	     46.22524785	      0.80678277	      8.98927976	     -5.50039883	      0.00000000	      0.00000000	     92.85922186	     -3.49587344	     -1.36966027	    109.97097995	      1.91935568	     18.54174173	     -9.56166818	      0.00000000	      0.00000000	    -51.14482460	     -0.98015020	     -2.61487798	     89.66150947	     -4.84118994	     43.00435991	     24.22847923	     23.86014585	      0.00000000	      0.00000000	     89.59379738	     -3.73034726	     43.59937226	     25.29328792	     24.46505077	      0.00000000	      0.00000000
      0.05000000	    -14.74609419	      3.40675411	     -0.09357967	      0.11160986	      1.07416589	     -0.26598576	      0.00000000	      0.50000000	      0.00000000	      0.25000000	     40.56303763	     -8.01447390	     -1.40600540	     46.43205343	      0.81039221	      9.10156202	     -5.46165664	      0.00000000	      0.00000000	     93.07619869	     -3.68407716	     -1.25557266	    110.06747148	      1.92103978	     18.47045754	     -9.64745127	      0.00000000	      0.00000000	    -51.01193573	     -1.01641995	     -2.49953040	     89.65588038	     -4.52605195	     41.66492437	     24.02591449	     24.82682676	      0.00000000	      0.00000000	     89.58954310	     -3.55310500	     42.83670857	     24.96902270	     25.29534869	      0.00000000	      0.00000000
      0.05500000	    -14.48710188	      3.33353109	     -0.04693476	      0.11171332	      1.07462060	     -0.26627181	      0.00000000	      0.50000000	      0.00000000	      0.25000000	     40.23169744	     -8.03937337	     -1.58365828	     46.38804851	      0.80962418	      9.02689530	     -5.40077279	      0.00000000	      0.00000000	     92.77830174	     -3.58739592	     -1.19675027	    110.02369161	      1.92027567	     18.63703862	     -9.57860338	      0.00000000	      0.00000000	    -51.30431053	     -0.84772349	     -2.42958306	     89.65761006	     -4.35413068	     40.63603877	     23.97361017	     25.57237958	      0.00000000	      0.00000000	     89.58601802	     -3.41586847	     41.78981900	     25.02409347	     26.02578525	      0.00000000	      0.00000000
